<svg xmlns="http://www.w3.org/2000/svg" xmlns:xlink="http://www.w3.org/1999/xlink" preserveAspectRatio="xMidYMid" width="594" height="639" viewBox="0 0 594 639">
  <defs>
    <style>

      .cls-3 {
        fill: #44444f;
      }

      .cls-4 {
        fill: #65e496;
      }

      .cls-6 {
        fill: #3d3d47;
      }
    </style>
  </defs>
  <g id="book">
    <path d="M5.000,-0.000 C5.000,-0.000 439.969,-0.000 439.969,-0.000 C442.730,-0.000 444.969,2.238 444.969,5.000 C444.969,5.000 444.969,634.000 444.969,634.000 C444.969,636.761 442.730,639.000 439.969,639.000 C439.969,639.000 5.000,639.000 5.000,639.000 C2.239,639.000 -0.000,636.761 -0.000,634.000 C-0.000,634.000 -0.000,5.000 -0.000,5.000 C-0.000,2.238 2.239,-0.000 5.000,-0.000 Z" id="path-1" class="cls-3" fill-rule="evenodd"/>
    <path d="M376.051,536.046 C376.051,536.046 541.470,370.655 541.470,370.655 C553.478,358.649 572.948,358.649 584.956,370.655 C596.964,382.661 596.964,402.128 584.956,414.134 C584.956,414.134 419.537,579.526 419.537,579.526 C407.529,591.531 388.059,591.531 376.051,579.526 C364.043,567.519 364.043,548.053 376.051,536.046 Z" id="path-2" class="cls-4" fill-rule="evenodd"/>
    <path d="M295.258,490.231 C295.258,490.231 460.677,324.840 460.677,324.840 C472.685,312.834 492.155,312.834 504.163,324.840 C516.172,336.847 516.172,356.313 504.163,368.319 C504.163,368.319 338.745,533.710 338.745,533.710 C326.736,545.717 307.267,545.717 295.258,533.710 C283.250,521.704 283.250,502.237 295.258,490.231 Z" id="path-3" class="cls-4" fill-rule="evenodd"/>
    <rect id="rect-1" class="cls-6" width="62" height="639"/>
  </g>
</svg>
