<svg xmlns="http://www.w3.org/2000/svg" xmlns:xlink="http://www.w3.org/1999/xlink" preserveAspectRatio="xMidYMid" width="364" height="409" viewBox="0 0 364 409">
  <defs>
    <style>

      .cls-3 {
        fill: #44444f;
      }

      .cls-4 {
        fill: #65e496;
      }

      .cls-6 {
        fill: #3d3d47;
      }
    </style>
  </defs>
  <g id="book-img">
    <path d="M5.000,-0.000 C5.000,-0.000 263.937,-0.000 263.937,-0.000 C266.699,-0.000 268.937,2.238 268.937,5.000 C268.937,5.000 268.937,404.000 268.937,404.000 C268.937,406.761 266.699,409.000 263.937,409.000 C263.937,409.000 5.000,409.000 5.000,409.000 C2.239,409.000 -0.000,406.761 -0.000,404.000 C-0.000,404.000 -0.000,5.000 -0.000,5.000 C-0.000,2.238 2.239,-0.000 5.000,-0.000 Z" id="path-1" class="cls-3" fill-rule="evenodd"/>
    <path d="M250.672,294.169 C250.672,294.169 356.327,233.170 356.327,233.170 C358.719,231.789 361.777,232.608 363.158,234.999 C364.538,237.391 363.719,240.449 361.327,241.829 C361.327,241.829 255.672,302.829 255.672,302.829 C253.281,304.210 250.223,303.391 248.842,301.000 C247.461,298.608 248.281,295.550 250.672,294.169 Z" id="path-2" class="cls-4" fill-rule="evenodd"/>
    <path d="M250.672,267.170 C250.672,267.170 356.327,206.169 356.327,206.169 C358.719,204.789 361.777,205.608 363.158,207.999 C364.538,210.391 363.719,213.449 361.327,214.830 C361.327,214.830 255.672,275.829 255.672,275.829 C253.281,277.211 250.223,276.391 248.842,274.000 C247.461,271.608 248.281,268.550 250.672,267.170 Z" id="path-3" class="cls-4" fill-rule="evenodd"/>
    <rect id="rect-1" class="cls-6" width="37" height="409"/>
  </g>
</svg>
